<svg aria-hidden="true" style="position: absolute; width: 0; height: 0; overflow: hidden;" version="1.1" xmlns="http://www.w3.org/2000/svg" xmlns:xlink="http://www.w3.org/1999/xlink">
<defs>
<symbol id="icon-ac" viewBox="0 0 32 32">
<path d="M2.587 0.038c-0.397 0.121-0.741 0.277-1.061 0.469l0.021-0.012c-0.602 0.412-1.071 0.977-1.357 1.639l-0.009 0.025-0.154 0.373-0.014 6.504c-0.013 5.838-0.006 6.534 0.070 6.8 0.315 1.090 1.269 2.040 2.397 2.386 0.307 0.094 0.854 0.098 13.52 0.098s13.213-0.003 13.52-0.098c1.128-0.346 2.082-1.296 2.397-2.386 0.077-0.266 0.083-0.962 0.070-6.8l-0.014-6.504-0.154-0.373c-0.376-0.901-1.078-1.603-1.955-1.97l-0.024-0.009-0.373-0.154-13.387-0.008c-7.363-0.003-13.435 0.005-13.493 0.019zM29.138 2.507c0.109 0.074 0.262 0.227 0.344 0.341l0.146 0.21v12.17l-0.131 0.186c-0.119 0.193-0.294 0.342-0.502 0.426l-0.007 0.002c-0.192 0.091-0.341 0.102-1.427 0.104l-1.213 0.002-0.002-1.8c0-1.84-0.032-2.261-0.214-2.779-0.352-1.002-1.307-1.869-2.398-2.176-0.328-0.094-0.726-0.099-7.733-0.099-6.982 0-7.405 0.006-7.728 0.098-1.206 0.338-2.14 1.258-2.494 2.429l-0.007 0.025c-0.066 0.221-0.086 0.672-0.104 2.288l-0.022 2.014-1.208-0.002c-1.058-0.002-1.237-0.014-1.424-0.099-0.28-0.128-0.547-0.408-0.613-0.643-0.034-0.12-0.053-2.376-0.053-6.098 0-4.856 0.013-5.939 0.072-6.082 0.133-0.259 0.336-0.466 0.585-0.6l0.007-0.004c0.133-0.058 2.442-0.069 13.046-0.059l12.883 0.011 0.197 0.134zM23.179 11.546c0.169 0.053 0.314 0.14 0.434 0.253l-0-0c0.326 0.339 0.334 0.389 0.334 2.36v1.789h-15.894l0.002-1.8c0.002-1.992 0.010-2.050 0.358-2.378 0.328-0.307 0.029-0.296 7.565-0.299 5.96-0.003 6.973 0.008 7.202 0.075zM8.792 21.714c-0.16 0.059-0.298 0.142-0.418 0.245l0.002-0.002c-0.405 0.346-0.4 0.322-0.429 2.203l-0.027 1.68-0.146 0.312c-0.352 0.75-1.030 1.208-1.794 1.208-0.685 0-1.182 0.28-1.37 0.773-0.053 0.129-0.084 0.279-0.084 0.436 0 0.455 0.26 0.85 0.639 1.044l0.007 0.003c0.29 0.154 0.304 0.155 0.934 0.125 0.718-0.034 1.099-0.122 1.67-0.384 1.353-0.637 2.316-1.905 2.514-3.415l0.002-0.022c0.035-0.27 0.053-1.045 0.042-1.92-0.018-1.579-0.026-1.632-0.33-1.965-0.264-0.293-0.81-0.437-1.214-0.322zM15.619 21.725c-0.262 0.101-0.478 0.276-0.626 0.499l-0.003 0.005-0.138 0.198-0.014 4.376-0.013 4.376 0.123 0.237c0.077 0.147 0.222 0.304 0.381 0.411 0.234 0.158 0.291 0.173 0.67 0.173s0.437-0.014 0.67-0.173c0.157-0.106 0.284-0.243 0.376-0.404l0.126-0.239v-4.318c0-3.898-0.008-4.334-0.088-4.501-0.129-0.247-0.322-0.446-0.556-0.58l-0.007-0.004c-0.157-0.068-0.339-0.107-0.531-0.107-0.132 0-0.26 0.019-0.381 0.054l0.010-0.002zM22.483 21.733c-0.379 0.129-0.668 0.433-0.774 0.812l-0.002 0.008c-0.088 0.315-0.067 3.005 0.026 3.542 0.245 1.459 1.186 2.654 2.463 3.25l0.027 0.011c0.571 0.262 0.952 0.35 1.67 0.384 0.63 0.030 0.645 0.029 0.934-0.125 0.394-0.208 0.6-0.514 0.63-0.934 0.058-0.805-0.504-1.322-1.438-1.322-0.387 0-0.805-0.138-1.106-0.363-0.301-0.212-0.537-0.498-0.683-0.832l-0.005-0.013-0.146-0.312-0.027-1.68c-0.029-1.882-0.024-1.858-0.427-2.203-0.2-0.18-0.467-0.291-0.759-0.291-0.138 0-0.269 0.024-0.391 0.069l0.008-0.003z"></path>
</symbol>
<symbol id="icon-bad" viewBox="0 0 32 32">
<path d="M7.526 5.016c-1.166 0.306-2.214 1.36-2.514 2.531-0.101 0.394-0.106 0.592-0.106 3.605v3.189l-0.278 0.141c-0.997 0.499-1.885 1.477-2.35 2.586-0.381 0.906-0.374 0.811-0.397 5.17-0.024 4.333-0.035 4.171 0.317 4.531 0.243 0.25 0.445 0.336 0.784 0.339 0.011 0 0.023 0.001 0.036 0.001 0.295 0 0.563-0.115 0.762-0.302l-0.001 0.001c0.222-0.202 0.293-0.41 0.328-0.96 0.029-0.464 0.048-0.539 0.155-0.627 0.118-0.096 0.486-0.099 11.738-0.099s11.619 0.003 11.738 0.099c0.107 0.088 0.126 0.163 0.155 0.627 0.035 0.55 0.106 0.758 0.328 0.96 0.227 0.206 0.485 0.304 0.797 0.301 0.014 0.001 0.030 0.001 0.046 0.001 0.295 0 0.559-0.131 0.737-0.339l0.001-0.001c0.352-0.36 0.341-0.2 0.317-4.533-0.024-4.355-0.018-4.266-0.397-5.168-0.466-1.109-1.354-2.086-2.35-2.586l-0.278-0.141v-3.189c0-3.013-0.005-3.211-0.106-3.605-0.302-1.182-1.352-2.232-2.534-2.534-0.408-0.104-0.59-0.106-8.475-0.102-7.789 0.002-8.070 0.005-8.451 0.106zM24.066 7.245c0.299 0.147 0.654 0.531 0.742 0.802 0.074 0.226 0.133 3.443 0.062 3.413-0.845-0.383-1.009-0.464-1.172-0.545l0.674 0.303c-0.231-0.117-0.499-0.213-0.78-0.274l-0.023-0.004c-0.557-0.093-5.792-0.078-6.243 0.018-0.427 0.103-0.802 0.274-1.134 0.503l0.011-0.007-0.202 0.133-0.254-0.163c-0.338-0.23-0.737-0.399-1.167-0.483l-0.020-0.003c-0.478-0.077-5.666-0.075-6.13 0.003-0.304 0.066-0.572 0.162-0.823 0.287l0.020-0.009-0.494 0.24c-0.059 0.027-0.048-2.867 0.014-3.197 0.111-0.53 0.505-0.947 1.014-1.089l0.010-0.002c0.226-0.054 1.835-0.066 7.962-0.059l7.68 0.010 0.253 0.125zM14.373 13.219c0.248 0.114 0.315 0.184 0.427 0.451l0.082 0.197h-6.773l0.056-0.147c0.106-0.228 0.28-0.41 0.496-0.522l0.006-0.003c0.126-0.056 0.715-0.072 2.826-0.072 2.467 0 2.683 0.006 2.88 0.096zM23.322 13.194c0.228 0.111 0.408 0.295 0.511 0.52l0.003 0.007 0.056 0.147h-6.773l0.082-0.197c0.112-0.267 0.179-0.338 0.427-0.451 0.197-0.090 0.416-0.098 2.867-0.098 2.139-0.002 2.69 0.013 2.827 0.072zM25.523 16.165c0.702 0.126 1.499 0.666 1.893 1.28 0.096 0.149 0.235 0.43 0.31 0.626l0.139 0.357 0.016 2.226 0.018 2.227h-23.792v-2.043c0-1.227 0.022-2.17 0.058-2.36 0.205-1.133 1.238-2.139 2.395-2.333 0.074-0.013 4.299-0.026 9.39-0.030 6.403-0.005 9.354 0.011 9.573 0.051z"></path>
</symbol>
<symbol id="icon-car1" viewBox="0 0 32 32">
<path d="M12.106 4.85c-0.25 0.077-0.453 0.208-0.666 0.43-0.118 0.122-0.355 0.346-0.53 0.498l-0.316 0.276-9.288 0.053-0.248 0.122c-0.378 0.186-0.715 0.513-0.882 0.853l-0.15 0.305v16.594l0.15 0.227c0.104 0.157 0.235 0.266 0.426 0.355l0.277 0.129 4.32 0.002 0.119 0.392c0.484 1.594 2.334 2.5 3.954 1.937 0.889-0.31 1.65-1.067 1.895-1.884l0.114-0.379c0.017-0.053 1.202-0.066 5.696-0.066h5.674l0.033 0.204c0.092 0.577 0.74 1.457 1.336 1.816 0.579 0.348 0.947 0.451 1.632 0.456 0.508 0.003 0.678-0.018 0.986-0.121 0.96-0.32 1.698-1.069 1.996-2.013l0.006-0.022 0.092-0.294 1.193-0.029c0.714-0.017 1.25-0.053 1.334-0.090 0.231-0.1 0.536-0.4 0.64-0.628 0.089-0.197 0.097-0.407 0.098-2.64 0-2.579-0.010-2.699-0.266-3.229-0.184-0.378-0.592-0.786-0.998-0.998-0.198-0.103-0.748-0.338-1.222-0.522l-0.86-0.334-1.027-2.353c-0.565-1.294-1.084-2.452-1.154-2.574-0.16-0.276-0.574-0.667-0.862-0.814-0.488-0.249-0.715-0.271-2.714-0.271h-1.882v-0.694h7.070l0.238-0.12c0.47-0.238 0.704-0.826 0.512-1.285-0.118-0.282-1.652-2.519-1.914-2.791-0.155-0.147-0.333-0.272-0.528-0.367l-0.012-0.005-0.326-0.151-6.907-0.009c-3.798-0.005-6.966 0.010-7.040 0.032zM26.054 5.911c0.186 0.114 1.864 2.54 1.813 2.622-0.021 0.034-1.347 0.053-3.766 0.053-2.458 0-3.769 0.019-3.836 0.055-0.276 0.147-0.264-0.202-0.264 7.702v7.336h-8.68l-0.122-0.378c-0.395-1.23-1.655-2.133-2.97-2.128-1.294 0.005-2.546 0.914-2.91 2.113l-0.119 0.392-4.186 0.001v-2.24h0.8v-0.96h-0.8v-6.406c0-6.403 0-6.406 0.111-6.605 0.062-0.109 0.188-0.244 0.28-0.3 0.162-0.098 0.362-0.103 4.835-0.129l4.666-0.026 0.24-0.143c0.132-0.078 0.444-0.349 0.693-0.6l0.452-0.457h6.801c6.498 0 6.809 0.005 6.962 0.098zM3.334 9.967c-0.278 0.128-0.471 0.314-0.609 0.584-0.106 0.208-0.111 0.298-0.111 1.994l0.001 1.775 0.16 0.279c0.118 0.206 0.234 0.322 0.44 0.44l0.279 0.16h6.933l0.279-0.16c0.206-0.118 0.322-0.234 0.44-0.44l0.16-0.279 0.001-1.775c0-1.64-0.007-1.791-0.101-1.974-0.136-0.265-0.35-0.474-0.611-0.6l-0.008-0.003c-0.2-0.092-0.429-0.098-3.626-0.098-3.203 0-3.426 0.006-3.626 0.098zM10.264 10.946c0.070 0.1 0.082 0.344 0.082 1.588s-0.013 1.487-0.082 1.588l-0.083 0.118h-6.442l-0.083-0.118c-0.070-0.101-0.082-0.345-0.082-1.588s0.013-1.488 0.082-1.588l0.083-0.119h6.442l0.083 0.119zM25.114 11.386c0.165 0.092 0.344 0.245 0.42 0.36 0.13 0.198 1.932 4.267 1.932 4.365 0 0.031-1.228 0.045-3.213 0.037l-3.214-0.014-0.014-2.47-0.014-2.47 3.814 0.034 0.288 0.159zM29.121 17.494c1.135 0.439 1.198 0.47 1.43 0.699 0.358 0.353 0.406 0.514 0.426 1.447l0.018 0.84h-0.81v0.96h0.802l-0.014 1.106-0.014 1.107h-2.219l-0.132-0.391c-0.090-0.257-0.193-0.477-0.317-0.684l0.009 0.017c-0.254-0.396-0.774-0.853-1.221-1.073-1.235-0.608-2.63-0.383-3.591 0.579-0.401 0.402-0.741 0.983-0.803 1.374l-0.033 0.205h-1.639v-6.56h7.142l0.966 0.374zM9.12 22.354c0.446 0.209 0.768 0.526 0.991 0.977 0.176 0.358 0.193 0.43 0.193 0.849 0 0.398-0.021 0.504-0.161 0.802-0.292 0.635-0.874 1.093-1.571 1.206l-0.012 0.002c-0.629 0.11-1.342-0.135-1.82-0.626-0.479-0.493-0.678-1.306-0.478-1.944 0.19-0.6 0.706-1.131 1.311-1.348 0.378-0.136 1.169-0.094 1.546 0.082zM26.588 22.371c0.387 0.19 0.766 0.558 0.967 0.942 0.14 0.265 0.151 0.333 0.151 0.874 0 0.566-0.006 0.599-0.181 0.92-0.81 1.495-2.968 1.46-3.711-0.060-0.194-0.397-0.242-0.99-0.116-1.426 0.171-0.589 0.666-1.107 1.272-1.331 0.442-0.164 1.194-0.126 1.618 0.082z"></path>
</symbol>
<symbol id="icon-car2" viewBox="0 0 32 32">
<path d="M12.106 4.85c-0.25 0.077-0.453 0.208-0.666 0.43-0.118 0.122-0.355 0.346-0.53 0.498l-0.316 0.276-9.288 0.053-0.248 0.122c-0.378 0.186-0.715 0.513-0.882 0.853l-0.15 0.305v16.594l0.15 0.227c0.104 0.157 0.235 0.266 0.426 0.355l0.277 0.129 4.32 0.002 0.119 0.392c0.484 1.594 2.334 2.5 3.954 1.937 0.889-0.31 1.65-1.067 1.895-1.884l0.114-0.379c0.017-0.053 1.202-0.066 5.696-0.066h5.674l0.033 0.204c0.092 0.577 0.74 1.457 1.336 1.816 0.579 0.348 0.947 0.451 1.632 0.456 0.508 0.003 0.678-0.018 0.986-0.121 0.96-0.32 1.698-1.069 1.996-2.013l0.006-0.022 0.092-0.294 1.193-0.029c0.714-0.017 1.25-0.053 1.334-0.090 0.231-0.1 0.536-0.4 0.64-0.628 0.089-0.197 0.097-0.407 0.098-2.64 0-2.579-0.010-2.699-0.266-3.229-0.184-0.378-0.592-0.786-0.998-0.998-0.198-0.103-0.748-0.338-1.222-0.522l-0.86-0.334-1.027-2.353c-0.565-1.294-1.084-2.452-1.154-2.574-0.16-0.276-0.574-0.667-0.862-0.814-0.488-0.249-0.715-0.271-2.714-0.271h-1.882v-0.694h7.070l0.238-0.12c0.47-0.238 0.704-0.826 0.512-1.285-0.118-0.282-1.652-2.519-1.914-2.791-0.155-0.147-0.333-0.272-0.528-0.367l-0.012-0.005-0.326-0.151-6.907-0.009c-3.798-0.005-6.966 0.010-7.040 0.032zM26.054 5.911c0.186 0.114 1.864 2.54 1.813 2.622-0.021 0.034-1.347 0.053-3.766 0.053-2.458 0-3.769 0.019-3.836 0.055-0.276 0.147-0.264-0.202-0.264 7.702v7.336h-8.68l-0.122-0.378c-0.395-1.23-1.655-2.133-2.97-2.128-1.294 0.005-2.546 0.914-2.91 2.113l-0.119 0.392-4.186 0.001v-2.24h0.8v-0.96h-0.8v-6.406c0-6.403 0-6.406 0.111-6.605 0.062-0.109 0.188-0.244 0.28-0.3 0.162-0.098 0.362-0.103 4.835-0.129l4.666-0.026 0.24-0.143c0.132-0.078 0.444-0.349 0.693-0.6l0.452-0.457h6.801c6.498 0 6.809 0.005 6.962 0.098zM3.334 9.967c-0.278 0.128-0.471 0.314-0.609 0.584-0.106 0.208-0.111 0.298-0.111 1.994l0.001 1.775 0.16 0.279c0.118 0.206 0.234 0.322 0.44 0.44l0.279 0.16h6.933l0.279-0.16c0.206-0.118 0.322-0.234 0.44-0.44l0.16-0.279 0.001-1.775c0-1.64-0.007-1.791-0.101-1.974-0.136-0.265-0.35-0.474-0.611-0.6l-0.008-0.003c-0.2-0.092-0.429-0.098-3.626-0.098-3.203 0-3.426 0.006-3.626 0.098zM13.538 9.974c-0.245 0.13-0.511 0.448-0.579 0.692-0.032 0.116-0.052 2.246-0.052 5.583l-0.001 5.395 0.138 0.165 0.138 0.164h4.944l0.299-0.258v-11.022l-0.114-0.214c-0.118-0.231-0.303-0.413-0.529-0.524l-0.007-0.003c-0.148-0.074-0.426-0.086-2.106-0.084-1.808 0.002-1.949 0.010-2.131 0.106zM10.264 10.946c0.070 0.1 0.082 0.344 0.082 1.588s-0.013 1.487-0.082 1.588l-0.083 0.118h-6.442l-0.083-0.118c-0.070-0.101-0.082-0.345-0.082-1.588s0.013-1.488 0.082-1.588l0.083-0.119h6.442l0.083 0.119zM17.408 10.911c0.018 0.046 0.032 0.814 0.032 1.706v1.622h-3.52v-1.671c0-0.919 0.016-1.687 0.035-1.706s0.798-0.036 1.728-0.036c1.494 0 1.696 0.010 1.725 0.085zM25.114 11.386c0.165 0.092 0.344 0.245 0.42 0.36 0.13 0.198 1.932 4.267 1.932 4.365 0 0.031-1.228 0.045-3.213 0.037l-3.214-0.014-0.014-2.47-0.014-2.47 3.814 0.034 0.288 0.159zM17.427 18.12l0.014 2.894h-3.521v-5.815l3.494 0.028 0.014 2.894zM29.121 17.494c1.135 0.439 1.198 0.47 1.43 0.699 0.358 0.353 0.406 0.514 0.426 1.447l0.018 0.84h-0.81v0.96h0.802l-0.014 1.106-0.014 1.107h-2.219l-0.132-0.391c-0.090-0.257-0.193-0.477-0.317-0.684l0.009 0.017c-0.254-0.396-0.774-0.853-1.221-1.073-1.235-0.608-2.63-0.383-3.591 0.579-0.401 0.402-0.741 0.983-0.803 1.374l-0.033 0.205h-1.639v-6.56h7.142l0.966 0.374zM9.12 22.354c0.446 0.209 0.768 0.526 0.991 0.977 0.176 0.358 0.193 0.43 0.193 0.849 0 0.398-0.021 0.504-0.161 0.802-0.292 0.635-0.874 1.093-1.571 1.206l-0.012 0.002c-0.629 0.11-1.342-0.135-1.82-0.626-0.479-0.493-0.678-1.306-0.478-1.944 0.19-0.6 0.706-1.131 1.311-1.348 0.378-0.136 1.169-0.094 1.546 0.082zM26.588 22.371c0.387 0.19 0.766 0.558 0.967 0.942 0.14 0.265 0.151 0.333 0.151 0.874 0 0.566-0.006 0.599-0.181 0.92-0.81 1.495-2.968 1.46-3.711-0.060-0.194-0.397-0.242-0.99-0.116-1.426 0.171-0.589 0.666-1.107 1.272-1.331 0.442-0.164 1.194-0.126 1.618 0.082z"></path>
</symbol>
<symbol id="icon-car3" viewBox="0 0 32 32">
<path d="M12.106 4.85c-0.25 0.077-0.453 0.208-0.666 0.43-0.118 0.122-0.355 0.346-0.53 0.498l-0.316 0.276-9.288 0.053-0.248 0.122c-0.378 0.186-0.715 0.513-0.882 0.853l-0.15 0.305v16.594l0.15 0.227c0.104 0.157 0.235 0.266 0.426 0.355l0.277 0.129 4.32 0.002 0.119 0.392c0.484 1.594 2.334 2.5 3.954 1.937 0.889-0.31 1.65-1.067 1.895-1.884l0.114-0.379c0.017-0.053 1.202-0.066 5.696-0.066h5.674l0.033 0.204c0.092 0.577 0.74 1.457 1.336 1.816 0.579 0.348 0.947 0.451 1.632 0.456 0.508 0.003 0.678-0.018 0.986-0.121 0.96-0.32 1.698-1.069 1.996-2.013l0.006-0.022 0.092-0.294 1.193-0.029c0.714-0.017 1.25-0.053 1.334-0.090 0.231-0.1 0.536-0.4 0.64-0.628 0.089-0.197 0.097-0.407 0.098-2.64 0-2.579-0.010-2.699-0.266-3.229-0.184-0.378-0.592-0.786-0.998-0.998-0.198-0.103-0.748-0.338-1.222-0.522l-0.86-0.334-1.027-2.353c-0.565-1.294-1.084-2.452-1.154-2.574-0.16-0.276-0.574-0.667-0.862-0.814-0.488-0.249-0.715-0.271-2.714-0.271h-1.882v-0.694h7.070l0.238-0.12c0.47-0.238 0.704-0.826 0.512-1.285-0.118-0.282-1.652-2.519-1.914-2.791-0.155-0.147-0.333-0.272-0.528-0.367l-0.012-0.005-0.326-0.151-6.907-0.009c-3.798-0.005-6.966 0.010-7.040 0.032zM26.054 5.911c0.186 0.114 1.864 2.54 1.813 2.622-0.021 0.034-1.347 0.053-3.766 0.053-2.458 0-3.769 0.019-3.836 0.055-0.276 0.147-0.264-0.202-0.264 7.702v7.336h-8.68l-0.122-0.378c-0.395-1.23-1.655-2.133-2.97-2.128-1.294 0.005-2.546 0.914-2.91 2.113l-0.119 0.392-4.186 0.001v-2.24h0.8v-0.96h-0.8v-6.406c0-6.403 0-6.406 0.111-6.605 0.062-0.109 0.188-0.244 0.28-0.3 0.162-0.098 0.362-0.103 4.835-0.129l4.666-0.026 0.24-0.143c0.132-0.078 0.444-0.349 0.693-0.6l0.452-0.457h6.801c6.498 0 6.809 0.005 6.962 0.098zM13.538 9.974c-0.245 0.13-0.511 0.448-0.579 0.692-0.032 0.116-0.052 2.246-0.052 5.583l-0.001 5.395 0.138 0.165 0.138 0.164h4.944l0.299-0.258v-11.022l-0.114-0.214c-0.118-0.231-0.303-0.413-0.529-0.524l-0.007-0.003c-0.148-0.074-0.426-0.086-2.106-0.084-1.808 0.002-1.949 0.010-2.131 0.106zM17.408 10.911c0.018 0.046 0.032 0.814 0.032 1.706v1.622h-3.52v-1.671c0-0.919 0.016-1.687 0.035-1.706s0.798-0.036 1.728-0.036c1.494 0 1.696 0.010 1.725 0.085zM25.114 11.386c0.165 0.092 0.344 0.245 0.42 0.36 0.13 0.198 1.932 4.267 1.932 4.365 0 0.031-1.228 0.045-3.213 0.037l-3.214-0.014-0.014-2.47-0.014-2.47 3.814 0.034 0.288 0.159zM17.427 18.12l0.014 2.894h-3.521v-5.815l3.494 0.028 0.014 2.894zM29.121 17.494c1.135 0.439 1.198 0.47 1.43 0.699 0.358 0.353 0.406 0.514 0.426 1.447l0.018 0.84h-0.81v0.96h0.802l-0.014 1.106-0.014 1.107h-2.219l-0.132-0.391c-0.090-0.257-0.193-0.477-0.317-0.684l0.009 0.017c-0.254-0.396-0.774-0.853-1.221-1.073-1.235-0.608-2.63-0.383-3.591 0.579-0.401 0.402-0.741 0.983-0.803 1.374l-0.033 0.205h-1.639v-6.56h7.142l0.966 0.374zM9.12 22.354c0.446 0.209 0.768 0.526 0.991 0.977 0.176 0.358 0.193 0.43 0.193 0.849 0 0.398-0.021 0.504-0.161 0.802-0.292 0.635-0.874 1.093-1.571 1.206l-0.012 0.002c-0.629 0.11-1.342-0.135-1.82-0.626-0.479-0.493-0.678-1.306-0.478-1.944 0.19-0.6 0.706-1.131 1.311-1.348 0.378-0.136 1.169-0.094 1.546 0.082zM26.588 22.371c0.387 0.19 0.766 0.558 0.967 0.942 0.14 0.265 0.151 0.333 0.151 0.874 0 0.566-0.006 0.599-0.181 0.92-0.81 1.495-2.968 1.46-3.711-0.060-0.194-0.397-0.242-0.99-0.116-1.426 0.171-0.589 0.666-1.107 1.272-1.331 0.442-0.164 1.194-0.126 1.618 0.082z"></path>
</symbol>
<symbol id="icon-cd" viewBox="0 0 32 32">
<path d="M14.72 2.859c-1.77 0.213-3.034 0.578-4.507 1.298-1.446 0.709-2.344 1.354-3.523 2.533s-1.824 2.077-2.533 3.523c-0.385 0.741-0.713 1.602-0.939 2.504l-0.018 0.083c-0.296 1.189-0.347 1.659-0.347 3.2s0.051 2.011 0.347 3.2c0.23 0.928 0.496 1.645 0.957 2.587 0.709 1.446 1.354 2.344 2.533 3.523s2.077 1.824 3.523 2.533c0.741 0.385 1.602 0.713 2.504 0.939l0.083 0.018c1.189 0.296 1.659 0.347 3.2 0.347s2.011-0.051 3.2-0.347c1.868-0.488 3.499-1.303 4.913-2.387l-0.033 0.024c0.55-0.414 1.942-1.806 2.357-2.357 1.306-1.697 2.229-3.756 2.602-6.001l0.011-0.079c0.077-0.464 0.098-0.883 0.098-2 0-1.541-0.051-2.011-0.347-3.2-0.488-1.868-1.303-3.499-2.387-4.913l0.024 0.033c-0.414-0.55-1.806-1.942-2.357-2.357-1.464-1.104-3.141-1.923-4.8-2.346-1.094-0.28-1.621-0.342-3.040-0.362-0.209-0.006-0.455-0.009-0.702-0.009-0.288 0-0.574 0.004-0.86 0.013l0.042-0.001zM17.547 5.315c3.373 0.474 6.371 2.582 7.994 5.626 0.787 1.468 1.25 3.212 1.25 5.063 0 0.996-0.134 1.961-0.384 2.877l0.018-0.076c-0.906 3.31-3.277 5.979-6.419 7.222-1.191 0.484-2.572 0.765-4.018 0.765-0.926 0-1.824-0.115-2.683-0.331l0.075 0.016c-3.141-0.81-5.681-2.913-7.060-5.694l-0.028-0.063c-0.679-1.333-1.076-2.906-1.076-4.573 0-0.052 0-0.103 0.001-0.155l-0 0.008c-0-0.031-0.001-0.068-0.001-0.105 0-2.203 0.679-4.247 1.838-5.935l-0.023 0.036c1.96-2.907 5.241-4.793 8.961-4.793 0.549 0 1.088 0.041 1.615 0.12l-0.059-0.007zM15.149 7.522c-3.074 0.317-5.638 2.228-6.873 4.884l-0.022 0.052c-0.454 0.99-0.646 1.758-0.744 2.966l-0.064 0.784 0.157 0.302c0.095 0.188 0.226 0.345 0.386 0.466l0.003 0.002c0.214 0.155 0.264 0.168 0.67 0.168 0.4 0 0.461-0.014 0.666-0.157 0.374-0.259 0.493-0.525 0.541-1.221 0.115-1.637 0.666-2.918 1.726-4.029 1.074-1.122 2.478-1.752 4.174-1.872 0.696-0.048 0.962-0.166 1.221-0.541 0.142-0.205 0.157-0.266 0.157-0.661s-0.014-0.458-0.157-0.662c-0.235-0.339-0.547-0.499-1.010-0.515-0.042-0.001-0.091-0.001-0.14-0.001-0.244 0-0.485 0.012-0.722 0.036l0.030-0.002zM15.218 11.542c-1.781 0.339-3.126 1.579-3.598 3.31-0.163 0.603-0.165 1.685-0.002 2.294 0.45 1.572 1.663 2.786 3.202 3.227l0.033 0.008c0.605 0.162 1.69 0.162 2.294 0 1.277-0.365 2.309-1.224 2.893-2.353l0.012-0.026c0.338-0.674 0.443-1.152 0.443-2.003 0-0.566-0.024-0.811-0.114-1.147-0.414-1.547-1.71-2.84-3.235-3.23-0.55-0.139-1.427-0.176-1.93-0.080zM16.554 13.947c0.744 0.194 1.373 0.859 1.531 1.621 0.022 0.117 0.035 0.252 0.035 0.391 0 0.843-0.472 1.576-1.167 1.948l-0.012 0.006c-0.272 0.134-0.592 0.213-0.93 0.213-0.743 0-1.398-0.38-1.78-0.956l-0.005-0.008c-1.075-1.619 0.438-3.707 2.328-3.214z"></path>
</symbol>
<symbol id="icon-automatic" viewBox="0 0 32 32">
<path d="M5.666 2.934c-1.301 0.341-2.4 1.448-2.734 2.752-0.068 0.295-0.107 0.633-0.107 0.981s0.039 0.686 0.113 1.011l-0.006-0.030c0.304 1.116 1.067 2.014 2.068 2.492l0.023 0.010 0.462 0.222 0.018 1.818 0.018 1.816 0.2 0.405c0.264 0.533 0.67 0.939 1.203 1.202l0.405 0.2 3.472 0.054 0.027 4.402 0.026 4.403 0.2 0.405c0.264 0.533 0.67 0.939 1.203 1.203l0.405 0.2 2.43 0.016c1.664 0.011 2.493-0.002 2.63-0.042 0.451-0.133 0.782-0.6 0.784-1.109 0.001-0.014 0.001-0.031 0.001-0.047 0-0.458-0.27-0.853-0.66-1.035l-0.007-0.003c-0.197-0.091-0.384-0.099-2.357-0.099-1.878-0.002-2.152-0.011-2.226-0.086-0.077-0.075-0.083-0.506-0.072-4.146l0.014-4.062 2.267-0.027c2.478-0.029 2.413-0.021 2.73-0.355 0.429-0.451 0.408-1.259-0.043-1.682-0.346-0.325-0.101-0.31-5.349-0.31-4.29 0-4.806-0.008-4.882-0.083-0.072-0.072-0.083-0.288-0.082-1.56l0.002-1.477 0.466-0.222c1.026-0.487 1.79-1.385 2.087-2.475l0.006-0.027c0.068-0.295 0.107-0.633 0.107-0.981s-0.039-0.686-0.113-1.011l0.006 0.030c-0.373-1.344-1.41-2.382-2.726-2.749l-0.028-0.007c-0.296-0.066-0.635-0.104-0.984-0.104-0.354 0-0.699 0.039-1.030 0.113l0.031-0.006zM7.197 5.318c0.531 0.189 0.92 0.762 0.92 1.35 0 0.004 0 0.008 0 0.013 0 0.786-0.638 1.424-1.424 1.424-0.009 0-0.018-0-0.027-0l0.001 0c-1 0-1.678-0.934-1.384-1.909 0.085-0.283 0.419-0.672 0.702-0.816 0.406-0.208 0.754-0.226 1.211-0.062zM22.16 9.595c-0.138 0.067-0.255 0.151-0.357 0.251l0-0c-0.318 0.341-0.31 0.216-0.309 4.165 0.002 3.405 0.006 3.627 0.101 3.829 0.4 0.867 1.662 0.899 2.13 0.053 0.069-0.125 0.094-0.36 0.115-1.093l0.027-0.933 0.773-0.032c1.122-0.046 1.589-0.24 2.294-0.95 0.438-0.443 0.742-0.974 0.848-1.488 0.035-0.218 0.055-0.469 0.055-0.725 0-0.26-0.021-0.514-0.060-0.763l0.004 0.027c-0.226-1.093-1.291-2.158-2.384-2.384-0.163-0.034-0.861-0.058-1.653-0.058-1.221 0.002-1.394 0.013-1.584 0.101zM25.075 11.989c0.227 0.144 0.375 0.393 0.375 0.678 0 0.286-0.15 0.537-0.376 0.679l-0.003 0.002c-0.152 0.094-0.269 0.114-0.693 0.117l-0.51 0.003-0.016-0.744c-0.004-0.088-0.007-0.192-0.007-0.296 0-0.185 0.008-0.368 0.023-0.549l-0.002 0.024c0.048-0.125 0.976-0.058 1.21 0.086zM22.16 21.595c-0.138 0.067-0.255 0.151-0.357 0.251l0-0c-0.315 0.336-0.31 0.282-0.309 3.499 0.002 2.755 0.008 2.962 0.101 3.162 0.124 0.263 0.335 0.468 0.596 0.581l0.008 0.003c0.318 0.133 2.234 0.117 2.782-0.022 1.344-0.373 2.381-1.411 2.747-2.728l0.007-0.028c0.144-0.558 0.144-1.403 0-1.962-0.372-1.344-1.41-2.381-2.726-2.747l-0.027-0.007c-0.346-0.088-0.589-0.106-1.509-0.104-0.955 0.002-1.126 0.014-1.312 0.101zM24.587 24.010c0.517 0.221 0.864 0.754 0.864 1.326 0 0.752-0.594 1.389-1.344 1.446l-0.24 0.018-0.014-1.413c-0.005-0.17-0.007-0.37-0.007-0.57 0-0.32 0.007-0.638 0.020-0.955l-0.002 0.045c0.035-0.090 0.395-0.038 0.723 0.102z"></path>
</symbol>
<symbol id="icon-freezer" viewBox="0 0 32 32">
<path d="M7.973 2.027c-1.040 0.208-1.907 1-2.28 2.080l-0.12 0.346-0.014 10.32c-0.010 6.69 0.003 10.512 0.038 10.862 0.029 0.299 0.102 0.669 0.16 0.822 0.234 0.613 0.818 1.291 1.358 1.574 0.266 0.139 0.288 0.165 0.312 0.371 0.062 0.558 0.522 1.166 1.093 1.446 0.306 0.15 0.314 0.15 1.52 0.168 1.376 0.019 1.592-0.018 2.038-0.333 0.346-0.246 0.589-0.562 0.728-0.946l0.115-0.312h6.17l0.035 0.146c0.122 0.504 0.584 1.053 1.086 1.29 0.291 0.136 0.304 0.138 1.627 0.138s1.336-0.002 1.627-0.138c0.558-0.262 0.97-0.784 1.094-1.381 0.058-0.282 0.072-0.299 0.376-0.477 0.638-0.371 1.162-1.043 1.39-1.792 0.094-0.306 0.099-0.782 0.099-10.986 0-8.862-0.013-10.717-0.074-10.96-0.264-1.059-1.251-2.022-2.29-2.235-0.334-0.069-15.746-0.074-16.091-0.005zM23.971 4.234c0.125 0.104 0.226 0.232 0.299 0.376l0.003 0.007c0.096 0.218 0.099 0.398 0.086 3.846l-0.013 3.618h-16.694v-7.368l0.147-0.221c0.093-0.132 0.208-0.242 0.342-0.325l0.005-0.003c0.197-0.104 0.309-0.106 7.91-0.094l7.71 0.011 0.203 0.154zM9.893 5.594c-0.244 0.107-0.433 0.303-0.527 0.545l-0.002 0.007c-0.070 0.168-0.083 0.534-0.083 2.422 0 2.166 0.003 2.232 0.114 2.461 0.163 0.325 0.494 0.545 0.876 0.545 0.013 0 0.027-0 0.040-0.001l-0.002 0c0.008 0 0.018 0 0.027 0 0.156 0 0.305-0.028 0.442-0.080l-0.009 0.003c0.246-0.151 0.434-0.377 0.533-0.646l0.003-0.009c0.074-0.27 0.075-4.344 0-4.613-0.162-0.584-0.85-0.893-1.411-0.635zM24.347 19.923v5.765l-0.144 0.216c-0.097 0.138-0.223 0.25-0.37 0.327l-0.006 0.003-0.234 0.114h-7.586c-6.253 0-7.614-0.013-7.757-0.072-0.271-0.128-0.475-0.36-0.564-0.642l-0.002-0.008c-0.064-0.258-0.086-11.394-0.022-11.458 0.019-0.019 3.782-0.029 8.36-0.021l8.325 0.013v5.763zM10.056 14.406c-0.299 0.076-0.54 0.277-0.671 0.541l-0.003 0.006c-0.093 0.203-0.101 0.386-0.101 2.459 0 2.059 0.008 2.258 0.099 2.456 0.342 0.754 1.382 0.808 1.826 0.094l0.126-0.203v-4.64l-0.141-0.24c-0.184-0.304-0.513-0.504-0.888-0.504-0.088 0-0.173 0.011-0.255 0.032l0.007-0.002z"></path>
</symbol>
<symbol id="icon-gas" viewBox="0 0 32 32">
<path d="M18.667 1.731c-1.842 0.542-3.922 1.938-5.317 3.57-1.661 1.916-2.712 4.401-2.826 7.128l-0.001 0.024c-0.061 1.574 0.17 2.874 0.837 4.693 0.138 0.376 0.118 0.6-0.075 0.851-0.269 0.355-0.787 0.459-1.226 0.246-0.253-0.123-0.646-0.594-1.042-1.243-1.126-1.854-1.318-4.354-0.49-6.384 0.090-0.218 0.155-0.405 0.146-0.413-0.045-0.046-0.875 0.733-1.277 1.195-1.965 2.269-2.917 5.39-2.493 8.173 0.254 1.67 1.013 3.603 1.85 4.714 1.524 1.988 3.653 3.445 6.109 4.1l0.079 0.018c0.941 0.242 1.701 0.339 2.925 0.379 4.854 0.157 8.718-1.858 10.453-5.45 0.334-0.691 0.616-1.55 0.754-2.293 0.147-0.787 0.134-2.307-0.024-3.048-0.254-1.192-0.621-2.005-1.466-3.262-0.79-1.176-1.501-1.856-3.195-3.056-1.221-0.864-1.584-1.155-2.106-1.686-1.997-2.024-2.565-5.304-1.37-7.904 0.099-0.218 0.176-0.413 0.168-0.434-0.008-0.019-0.195 0.018-0.414 0.082zM17.058 14.040c0.278 0.504 0.67 1.059 1.029 1.451 0.238 0.261 1.598 1.458 2.051 1.805 0.222 0.171 0.77 0.893 0.955 1.262 0.302 0.6 0.418 1.152 0.384 1.842-0.019 0.678-0.199 1.309-0.503 1.863l0.011-0.021c-0.55 1.066-1.394 1.744-2.669 2.154-1.112 0.355-2.109 0.285-3.245-0.229-0.464-0.211-1.413-0.862-1.416-0.973 0-0.019 0.069-0.048 0.155-0.066 0.334-0.066 1.030-0.373 1.402-0.616 0.748-0.493 1.323-1.194 1.649-2.020l0.010-0.029c0.157-0.41 0.166-0.478 0.165-1.13-0.003-0.622-0.022-0.766-0.197-1.424-0.32-1.205-0.381-1.592-0.376-2.416 0.002-0.578 0.027-0.837 0.112-1.146 0.12-0.44 0.21-0.694 0.246-0.694 0.013 0 0.118 0.174 0.237 0.387z"></path>
</symbol>
<symbol id="icon-hurt" viewBox="0 0 32 32">
<path d="M8.72 2.509c-1.201 0.079-2.309 0.405-3.298 0.927l0.045-0.022c-0.873 0.424-1.62 0.959-2.263 1.599l0-0c-1.407 1.392-2.26 3.067-2.569 5.040-0.087 0.549-0.087 2.011 0 2.56 0.242 1.568 0.855 2.96 1.747 4.129l-0.016-0.022c0.4 0.537 12.481 12.651 12.86 12.896 0.252 0.161 0.292 0.171 0.775 0.171s0.523-0.009 0.775-0.171c0.379-0.245 12.46-12.359 12.86-12.896 0.875-1.147 1.488-2.539 1.725-4.056l0.007-0.051c0.088-0.549 0.087-2.071-0.001-2.587-0.511-2.996-2.221-5.324-4.885-6.655-1.211-0.604-2.445-0.88-3.92-0.876-2.349 0.007-4.435 0.853-6.12 2.484l-0.44 0.425-0.44-0.425c-1.582-1.545-3.748-2.499-6.137-2.499-0.247 0-0.492 0.010-0.734 0.030l0.032-0.002zM10.88 5.731c1.207 0.335 1.821 0.733 3.173 2.057 0.557 0.545 1.109 1.051 1.227 1.121 0.187 0.115 0.277 0.131 0.72 0.131s0.533-0.016 0.72-0.129c0.117-0.072 0.669-0.577 1.227-1.124 1.356-1.331 1.961-1.72 3.2-2.064 0.491-0.136 0.609-0.148 1.467-0.147 0.987 0 1.175 0.031 2 0.324 1.345 0.479 2.535 1.555 3.176 2.873 0.811 1.665 0.811 3.455 0 5.12-0.143 0.293-0.385 0.701-0.539 0.907s-2.748 2.845-5.765 5.867l-5.485 5.493-5.485-5.493c-3.017-3.021-5.612-5.661-5.765-5.867-0.186-0.26-0.365-0.557-0.521-0.867l-0.018-0.039c-0.381-0.746-0.605-1.627-0.605-2.56s0.224-1.814 0.62-2.592l-0.015 0.032c0.756-1.552 2.135-2.652 3.869-3.087 0.5-0.125 0.588-0.132 1.467-0.113 0.693 0.015 0.908 0.040 1.333 0.157z"></path>
</symbol>
<symbol id="icon-kitchen" viewBox="0 0 32 32">
<path d="M24.827 2.926c-0.275 0.126-1.941 1.826-2.702 2.758-2.421 2.963-3.723 5.666-4.306 8.928-0.208 1.171-0.28 2.067-0.31 3.845-0.032 1.904-0.021 1.997 0.264 2.323 0.336 0.382 0.173 0.363 3.427 0.392l2.933 0.027v1.6l-0.269 0.034c-0.289 0.021-0.544 0.151-0.727 0.348l-0.001 0.001c-0.307 0.323-0.309 0.342-0.309 2.829 0.002 2.107 0.010 2.299 0.101 2.496 0.069 0.137 0.152 0.255 0.252 0.357l-0-0c0.293 0.274 0.466 0.309 1.499 0.309 1.046-0.002 1.23-0.045 1.518-0.352 0.334-0.357 0.31 0.645 0.309-12.832-0.002-11.842-0.005-12.29-0.101-12.496-0.203-0.401-0.612-0.671-1.084-0.671-0.179 0-0.348 0.039-0.501 0.108l0.008-0.003zM6.16 4.259c-0.284 0.144-0.502 0.384-0.612 0.678l-0.003 0.009c-0.042 0.139-0.053 0.979-0.038 2.762 0.022 2.827 0.018 2.789 0.398 3.691 0.574 1.362 1.934 2.557 3.322 2.92l0.24 0.062 0.026 7.010c0.030 7.731 0.002 7.138 0.355 7.474 0.217 0.193 0.504 0.311 0.818 0.311s0.602-0.118 0.82-0.312l-0.001 0.001c0.354-0.336 0.326 0.258 0.355-7.474l0.027-7.010 0.24-0.062c1.386-0.363 2.746-1.558 3.32-2.92 0.381-0.902 0.378-0.864 0.4-3.691 0.014-1.782 0.002-2.622-0.040-2.762-0.112-0.302-0.329-0.543-0.606-0.683l-0.007-0.003c-0.146-0.063-0.315-0.099-0.493-0.099-0.319 0-0.611 0.117-0.835 0.31l0.002-0.001c-0.336 0.32-0.325 0.235-0.358 2.918-0.035 2.693-0.038 2.72-0.381 3.323-0.254 0.45-0.987 1.13-1.214 1.13-0.037 0-0.054-1.122-0.054-3.389 0-2.942-0.011-3.414-0.083-3.586-0.392-0.941-1.787-0.941-2.181 0-0.072 0.171-0.083 0.643-0.083 3.586 0 2.267-0.018 3.389-0.054 3.389-0.227 0-0.958-0.68-1.214-1.13-0.344-0.606-0.347-0.63-0.381-3.323-0.032-2.683-0.022-2.598-0.358-2.918-0.222-0.192-0.513-0.308-0.832-0.308-0.178 0-0.347 0.036-0.501 0.102l0.008-0.003zM24.136 18.76c-0.021 0.051-0.496 0.067-2.131 0.067-1.158 0-2.114-0.019-2.125-0.040-0.035-0.072 0.059-2.046 0.12-2.546 0.197-1.595 0.472-2.763 0.941-3.995 0.618-1.622 1.614-3.306 2.845-4.803l0.347-0.424 0.014 5.837c0.008 3.211 0.002 5.867-0.011 5.904z"></path>
</symbol>
<symbol id="icon-map" viewBox="0 0 32 32">
<path d="M14.992 0.173l-0.624 0.072c-3.318 0.381-6.52 2.17-8.667 4.843-1.797 2.231-2.884 5.099-2.884 8.221 0 0.767 0.066 1.518 0.191 2.249l-0.011-0.078c0.774 4.619 4.195 9.605 9.763 14.232 1.158 0.963 2.434 1.912 2.781 2.069 0.136 0.055 0.294 0.086 0.459 0.086s0.323-0.032 0.468-0.089l-0.009 0.003c0.49-0.222 2.507-1.789 3.933-3.053 2.304-2.043 4.355-4.35 5.76-6.48 2.459-3.723 3.41-7.262 2.901-10.8-0.645-4.389-3.38-8.023-7.145-9.903l-0.076-0.034c-1.169-0.604-2.529-1.044-3.965-1.244l-0.067-0.008c-0.456-0.069-2.438-0.13-2.808-0.086zM17.142 2.595c4.266 0.479 7.751 3.375 9.078 7.269l0.023 0.076c1.162 3.496 0.493 7.045-2.059 10.939-1.477 2.256-3.885 4.851-6.504 7.011-0.854 0.706-1.618 1.293-1.68 1.293s-0.826-0.587-1.68-1.293c-1.018-0.842-1.934-1.681-2.806-2.564l-0.004-0.004c-3.57-3.573-5.672-7.118-6.189-10.443-0.461-2.954 0.434-6.102 2.411-8.486 1.723-2.078 4.35-3.49 7.067-3.797 0.354-0.029 0.766-0.045 1.182-0.045 0.408 0 0.813 0.016 1.214 0.047l-0.053-0.003zM15.056 8.23c-1.95 0.355-3.555 1.846-4.082 3.795-0.115 0.429-0.13 0.562-0.13 1.294-0.002 0.68 0.014 0.883 0.101 1.224 0.474 1.908 1.947 3.381 3.818 3.847l0.036 0.008c0.589 0.149 1.811 0.149 2.4 0 1.907-0.474 3.381-1.947 3.847-3.818l0.008-0.036c0.086-0.341 0.102-0.544 0.101-1.224 0-0.733-0.014-0.866-0.13-1.294-0.53-1.963-2.139-3.451-4.107-3.795-0.28-0.040-0.603-0.064-0.931-0.064s-0.651 0.023-0.968 0.068l0.036-0.004zM16.648 10.616c0.382 0.080 0.888 0.347 1.208 0.637 0.618 0.56 0.928 1.248 0.928 2.059 0 0.837-0.242 1.427-0.816 2-0.571 0.568-1.17 0.816-1.968 0.816s-1.397-0.248-1.968-0.816c-0.574-0.573-0.816-1.163-0.816-2 0-0.797 0.307-1.493 0.898-2.032 0.702-0.642 1.563-0.867 2.534-0.664z"></path>
</symbol>
<symbol id="icon-microwave" viewBox="0 0 32 32">
<path d="M1.878 4.642c-0.762 0.11-1.506 0.776-1.757 1.571-0.098 0.314-0.098 19.261 0 19.574 0.259 0.821 0.989 1.458 1.805 1.574 0.49 0.072 27.706 0.067 28.154-0.003 0.741-0.129 1.349-0.603 1.661-1.247l0.006-0.014 0.173-0.365v-19.466l-0.173-0.365c-0.319-0.66-0.93-1.135-1.66-1.262l-0.014-0.002c-0.413-0.061-27.786-0.058-28.195 0.003zM29.733 16v9.147h-27.466l-0.014-9.094c-0.008-5.002-0.002-9.123 0.011-9.16 0.021-0.053 2.798-0.064 13.747-0.053l13.722 0.013v9.147zM6.357 9.23c-0.837 0.166-1.573 0.955-1.718 1.842-0.069 0.419-0.069 9.437 0 9.856 0.15 0.915 0.888 1.683 1.773 1.846 0.19 0.035 2.613 0.050 6.928 0.040l6.634-0.014 0.386-0.181c0.709-0.333 1.202-0.997 1.299-1.757 0.059-0.464 0.059-9.261 0-9.725-0.11-0.783-0.606-1.431-1.285-1.751l-0.014-0.006-0.386-0.181-6.693-0.008c-3.682-0.005-6.797 0.013-6.923 0.038zM24.987 10.325c-0.038 0.011-0.115 0.029-0.193 0.045l-0.036 0.006c-0.171 0.037-0.547 0.392-0.634 0.595-0.168 0.403-0.050 0.994 0.258 1.28 0.253 0.237 0.469 0.282 1.325 0.282 0.877 0 1.072-0.045 1.35-0.309 0.232-0.221 0.32-0.432 0.325-0.784 0.001-0.014 0.001-0.029 0.001-0.045 0-0.395-0.215-0.739-0.535-0.921l-0.005-0.003c-0.234-0.136-0.29-0.146-0.998-0.158-0.090-0.003-0.196-0.005-0.302-0.005-0.195 0-0.389 0.007-0.581 0.020l0.026-0.001zM19.467 16v4.587h-12.64v-9.174h12.64v4.587zM24.65 15.018c-0.426 0.214-0.57 0.462-0.57 0.982 0 0.526 0.146 0.773 0.581 0.986 0.286 0.141 0.31 0.144 1.146 0.126 0.85-0.019 0.851-0.019 1.083-0.181 0.302-0.204 0.498-0.545 0.498-0.931s-0.196-0.727-0.494-0.929l-0.004-0.003-0.232-0.162-0.862-0.018c-0.845-0.016-0.867-0.013-1.146 0.128z"></path>
</symbol>
<symbol id="icon-petrol" viewBox="0 0 32 32">
<path d="M7.573 4.035c-1.083 0.204-1.93 1.021-2.177 2.069l-0.004 0.019c-0.042 0.2-0.059 3.403-0.059 11.080v10.797h13.334v-9.973h1.966l0.021 3.586c0.021 3.978 0.005 3.787 0.389 4.563 0.662 1.341 2.262 2.086 3.704 1.725 0.682-0.171 1.078-0.395 1.579-0.888 0.354-0.347 0.474-0.51 0.648-0.88 0.381-0.805 0.358-0.322 0.358-7.813 0-7.574 0.027-7.032-0.382-7.867-0.186-0.376-0.349-0.552-2.88-3.093l-2.682-2.693-0.707 0.706-0.707 0.707 2.814 2.816-0.288 0.147c-0.782 0.399-1.375 1.074-1.659 1.893l-0.007 0.023c-0.299 0.925-0.168 2.010 0.338 2.792 0.301 0.466 0.552 0.723 0.997 1.021 0.516 0.344 1.15 0.549 1.832 0.549 0.37 0 0.726-0.060 1.059-0.172l-0.023 0.007 0.299-0.101-0.029 9.984-0.117 0.218c-0.419 0.782-1.419 0.981-2.054 0.406-0.125-0.118-0.233-0.251-0.322-0.398l-0.005-0.008c-0.115-0.216-0.117-0.251-0.144-3.685-0.027-3.422-0.029-3.47-0.147-3.782-0.296-0.786-0.83-1.318-1.638-1.63-0.28-0.109-0.438-0.128-1.267-0.149l-0.946-0.022v-4.81c0-4.144-0.011-4.854-0.082-5.128-0.232-0.904-0.8-1.534-1.706-1.896l-0.32-0.128-4.427-0.008c-0.407-0.002-0.888-0.004-1.369-0.004-1.122 0-2.242 0.007-3.361 0.021l0.17-0.002zM16 10v3.333h-8v-6.666h8v3.333zM24.621 10.832c0.419 0.227 0.698 0.663 0.698 1.164 0 0.106-0.012 0.209-0.036 0.307l0.002-0.009c-0.138 0.592-0.661 1.027-1.286 1.027-0.364 0-0.693-0.147-0.932-0.386v0c-0.243-0.238-0.393-0.57-0.393-0.937s0.15-0.697 0.392-0.935l0-0c0.24-0.239 0.57-0.386 0.935-0.386 0.227 0 0.441 0.057 0.627 0.158l-0.007-0.003zM16 20.667v4.666h-8v-9.333h8v4.667z"></path>
</symbol>
<symbol id="icon-plate" viewBox="0 0 32 32">
<path d="M3.226 5.589c-0.667 0.234-1.199 0.711-1.5 1.322l-0.007 0.015-0.198 0.402v18.677l0.2 0.405c0.264 0.534 0.67 0.941 1.203 1.203l0.405 0.2h25.344l0.405-0.2c0.533-0.262 0.939-0.669 1.203-1.203l0.2-0.405v-18.677l-0.2-0.405c-0.26-0.527-0.677-0.943-1.188-1.196l-0.015-0.007-0.405-0.2-12.589-0.011c-11.837-0.011-12.606-0.006-12.858 0.080zM10.8 16.667v8.8l-3.395 0.013c-3.035 0.013-3.405 0.005-3.48-0.070-0.077-0.075-0.085-0.925-0.085-8.742 0-7.819 0.008-8.667 0.085-8.744 0.075-0.075 0.445-0.083 3.48-0.070l3.395 0.014v8.8zM28.077 7.923c0.075 0.077 0.083 0.942 0.083 8.744 0 7.808-0.008 8.667-0.083 8.742-0.077 0.075-0.81 0.083-7.48 0.070l-7.397-0.013-0.014-8.747c-0.006-4.811-0.002-8.776 0.013-8.813 0.019-0.053 1.55-0.067 7.41-0.067 6.642 0 7.394 0.008 7.469 0.083zM24.12 9.603c-0.148 0.081-0.273 0.185-0.376 0.307l-0.002 0.002c-0.173 0.221-7.861 11.117-8.082 11.453-0.119 0.177-0.19 0.395-0.19 0.63 0 0.328 0.139 0.624 0.36 0.832l0.001 0.001c0.499 0.485 1.165 0.498 1.637 0.035 0.202-0.198 7.938-11.115 8.245-11.637 0.098-0.165 0.126-0.291 0.126-0.558 0-0.012 0.001-0.027 0.001-0.042 0-0.395-0.201-0.743-0.507-0.946l-0.004-0.003c-0.309-0.213-0.869-0.248-1.21-0.074zM6.941 10.192c-0.261 0.078-0.68 0.52-0.754 0.792-0.040 0.149-0.054 0.754-0.043 1.814l0.016 1.592 0.162 0.23c0.088 0.126 0.264 0.302 0.39 0.39 0.206 0.146 0.272 0.162 0.621 0.162s0.416-0.016 0.621-0.162c0.126-0.088 0.302-0.264 0.392-0.39l0.162-0.23v-3.448l-0.162-0.23c-0.251-0.355-0.538-0.53-0.91-0.555-0.037-0.003-0.081-0.004-0.125-0.004-0.131 0-0.259 0.014-0.381 0.042l0.012-0.002zM6.728 16.83c-0.488 0.246-0.73 0.691-0.691 1.275 0.017 0.43 0.251 0.801 0.595 1.010l0.005 0.003c0.235 0.146 0.306 0.162 0.696 0.162 0.392 0 0.462-0.016 0.696-0.162 0.172-0.109 0.313-0.251 0.419-0.417l0.003-0.005c0.146-0.235 0.162-0.306 0.162-0.696s-0.016-0.461-0.162-0.696c-0.237-0.386-0.578-0.578-1.059-0.6-0.326-0.016-0.418 0.002-0.664 0.126zM6.728 20.83c-0.488 0.246-0.73 0.691-0.691 1.275 0.017 0.43 0.251 0.801 0.595 1.010l0.005 0.003c0.235 0.146 0.306 0.162 0.696 0.162 0.392 0 0.462-0.016 0.696-0.162 0.172-0.109 0.313-0.251 0.419-0.417l0.003-0.005c0.146-0.235 0.162-0.306 0.162-0.696s-0.016-0.461-0.162-0.696c-0.237-0.386-0.578-0.578-1.059-0.6-0.326-0.016-0.418 0.002-0.664 0.126z"></path>
</symbol>
<symbol id="icon-radio" viewBox="0 0 32 32">
<path d="M13.947 4.365l-5.76 2.712-0.555 0.062c-1.904 0.214-3.109 0.709-4.101 1.68-1.027 1.008-1.504 2.197-1.76 4.402-0.080 0.677-0.091 1.394-0.091 5.446s0.011 4.768 0.091 5.445c0.254 2.182 0.704 3.325 1.715 4.357 1.008 1.027 2.197 1.504 4.402 1.76 0.698 0.082 1.549 0.091 8.112 0.091s7.414-0.010 8.112-0.091c2.205-0.256 3.394-0.733 4.402-1.76 1.011-1.032 1.461-2.174 1.715-4.357 0.080-0.677 0.091-1.392 0.091-5.445s-0.011-4.77-0.091-5.446c-0.256-2.205-0.733-3.394-1.76-4.402-1.018-0.997-2.16-1.453-4.277-1.709-0.576-0.069-1.586-0.088-5.758-0.109-2.838-0.013-5.040-0.043-5.013-0.069 0.026-0.026 1.65-0.802 3.61-1.725 1.96-0.922 3.611-1.722 3.672-1.776 0.192-0.196 0.31-0.464 0.31-0.76 0-0.002 0-0.004-0-0.006v0c0-0.598-0.419-1.013-1.024-1.011-0.261 0-0.718 0.205-6.042 2.71zM21.813 9.066c1.768 0.053 2.421 0.11 3.2 0.277 1.786 0.384 2.603 1.208 2.982 3.006 0.182 0.859 0.211 1.258 0.278 3.851 0.051 1.942 0.051 2.992 0 4.933-0.021 1.084-0.063 2.092-0.125 3.095l0.010-0.2c-0.12 1.011-0.397 1.963-0.725 2.493-0.571 0.926-1.65 1.437-3.461 1.64-0.912 0.102-3.675 0.155-7.973 0.155s-7.061-0.053-7.973-0.155c-2.579-0.29-3.626-1.138-4.050-3.28-0.154-0.773-0.186-1.253-0.253-3.747-0.024-0.735-0.038-1.599-0.038-2.466s0.014-1.731 0.042-2.592l-0.003 0.126c0.037-1.357 0.090-2.659 0.117-2.893 0.267-2.25 0.954-3.28 2.531-3.805 0.798-0.266 1.744-0.381 3.574-0.434 1.981-0.056 9.997-0.059 11.866-0.003zM8.443 11.067c-1.253 0.272-2.445 1.474-2.712 2.733-0.047 0.26-0.073 0.56-0.073 0.866s0.027 0.605 0.078 0.897l-0.005-0.031c0.27 1.275 1.467 2.469 2.746 2.739 0.525 0.11 14.533 0.112 15.046 0.002 1.283-0.277 2.475-1.466 2.746-2.741 0.047-0.26 0.073-0.559 0.073-0.865s-0.027-0.605-0.078-0.896l0.005 0.031c-0.27-1.275-1.466-2.467-2.746-2.739-0.509-0.107-14.584-0.104-15.080 0.005zM23.307 13.179c0.577 0.257 0.972 0.826 0.972 1.486s-0.395 1.229-0.962 1.482l-0.010 0.004c-0.282 0.131-0.334 0.138-1.28 0.139l-0.987 0.002-0.027-0.67c-0.024-0.603-0.040-0.691-0.16-0.867-0.158-0.234-0.579-0.462-0.853-0.462s-0.694 0.229-0.853 0.462c-0.12 0.176-0.136 0.264-0.16 0.867l-0.027 0.67h-9.973l-0.294-0.139c-1.054-0.501-1.307-1.827-0.501-2.626 0.228-0.234 0.526-0.399 0.861-0.459l0.010-0.001c0.134-0.024 3.328-0.038 7.098-0.035l6.853 0.008 0.294 0.139zM9.36 19.69c-0.355 0.067-0.954 0.362-1.269 0.626-0.763 0.635-1.104 1.362-1.104 2.352 0 0.774 0.195 1.354 0.635 1.882 1.272 1.531 3.486 1.536 4.747 0.008 0.256-0.309 0.506-0.816 0.584-1.186 0.082-0.382 0.075-1.152-0.013-1.478-0.414-1.549-1.973-2.509-3.581-2.203zM16.88 21.742c-0.334 0.161-0.561 0.497-0.561 0.885 0 0.014 0 0.028 0.001 0.041l-0-0.002c0 0.416 0.187 0.73 0.544 0.912 0.189 0.096 0.371 0.101 3.803 0.101 3.43 0 3.613-0.005 3.802-0.101 0.325-0.159 0.545-0.487 0.545-0.867 0-0.016-0-0.032-0.001-0.048l0 0.002c0.001-0.014 0.001-0.030 0.001-0.046 0-0.38-0.22-0.708-0.539-0.865l-0.006-0.003c-0.189-0.096-0.368-0.101-3.813-0.098-3.195 0.002-3.635 0.011-3.776 0.086zM10.33 21.763c0.359 0.151 0.609 0.498 0.616 0.903v0.001c0 0.282-0.096 0.496-0.314 0.702-0.598 0.565-1.578 0.128-1.578-0.702 0-0.283 0.096-0.496 0.314-0.704 0.166-0.159 0.392-0.257 0.641-0.257 0.115 0 0.225 0.021 0.327 0.059l-0.006-0.002z"></path>
</symbol>
<symbol id="icon-route" viewBox="0 0 32 32">
<path d="M6.053 1.365c-2.256 0.334-3.95 1.806-4.544 3.946-0.131 0.474-0.146 0.618-0.146 1.357 0 0.738 0.014 0.883 0.146 1.355 0.454 1.647 1.625 2.955 3.148 3.585l0.036 0.013c0.58 0.234 1.252 0.369 1.957 0.369 1.943 0 3.645-1.033 4.587-2.579l0.013-0.024c1.426-2.4 0.734-5.547-1.558-7.104-0.502-0.331-1.083-0.601-1.702-0.779l-0.045-0.011c-0.438-0.106-1.533-0.181-1.891-0.128zM7.178 4.058c1.046 0.192 1.92 1.083 2.106 2.149 0.32 1.846-1.331 3.45-3.16 3.067-0.811-0.194-1.472-0.721-1.841-1.425l-0.007-0.015c-0.169-0.338-0.267-0.736-0.267-1.158 0-0.736 0.301-1.402 0.787-1.88l0-0c0.47-0.488 1.128-0.792 1.858-0.792 0.186 0 0.367 0.020 0.541 0.057l-0.017-0.003zM14.192 5.424c-0.178 0.078-0.33 0.181-0.46 0.308l0-0c-0.242 0.239-0.391 0.571-0.391 0.938 0 0.512 0.292 0.956 0.718 1.175l0.007 0.003 0.253 0.125 4.587 0.027c4.574 0.027 4.587 0.027 4.8 0.142 0.646 0.349 0.898 1.080 0.586 1.704-0.074 0.149-0.187 0.32-0.254 0.382s-3.65 2.12-7.96 4.573c-7.629 4.158-10.284 5.699-12.931 7.252l4.806-2.605c-1.754 1.152-2.234 3.445-1.118 5.339 0.098 0.168 0.371 0.499 0.606 0.736 0.352 0.357 0.517 0.477 0.933 0.682 0.928 0.454 0.637 0.43 5.139 0.45 4.515 0.019 4.334 0.034 4.754-0.386 0.242-0.239 0.391-0.571 0.391-0.938 0-0.512-0.292-0.956-0.718-1.175l-0.007-0.003-0.253-0.125-3.92-0.027c-3.891-0.027-3.922-0.027-4.133-0.142-0.658-0.355-0.904-1.094-0.574-1.726 0.089-0.165 0.201-0.306 0.333-0.424l0.001-0.001c0.102-0.080 3.702-2.144 8-4.587 9.468-5.133 12.074-6.642 14.674-8.159l-6.701 3.61c1.781-1.205 2.258-3.454 1.139-5.357-0.186-0.275-0.386-0.516-0.606-0.736l-0-0c-0.257-0.284-0.568-0.514-0.917-0.674l-0.018-0.007c-0.939-0.461-0.546-0.43-5.838-0.443-4.158-0.011-4.72-0.003-4.928 0.072zM24.576 20.054c-0.867 0.147-1.639 0.466-2.31 0.922l0.020-0.013c-0.513 0.373-0.951 0.81-1.312 1.306l-0.012 0.017c-0.336 0.498-0.677 1.253-0.813 1.797-0.094 0.382-0.118 0.63-0.118 1.25 0 0.93 0.114 1.467 0.469 2.218 0.309 0.651 0.613 1.091 1.069 1.547 0.664 0.662 1.598 1.19 2.514 1.418 0.678 0.17 1.822 0.17 2.501 0 0.986-0.261 1.834-0.754 2.515-1.419l-0.001 0.001c0.662-0.664 1.19-1.598 1.418-2.514 0.17-0.678 0.17-1.822 0-2.501-0.261-0.986-0.754-1.834-1.419-2.515l0.001 0.001c-0.672-0.658-1.511-1.148-2.447-1.401l-0.039-0.009c-0.515-0.126-1.566-0.181-2.035-0.106zM25.877 22.726c1.209 0.279 2.1 1.335 2.123 2.604l0 0.003c0 1.44-1.227 2.667-2.667 2.667-1.438 0-2.666-1.227-2.666-2.667 0-1.197 0.875-2.307 2.045-2.59 0.35-0.085 0.806-0.091 1.165-0.016z"></path>
</symbol>
<symbol id="icon-shower" viewBox="0 0 32 32">
<path d="M4.853 4.165c-0.285 0.124-0.512 0.336-0.652 0.601l-0.003 0.007c-0.147 0.278-0.155 0.826-0.016 1.094 0.053 0.102 0.706 0.798 1.45 1.546l1.352 1.36-0.189 0.294c-0.799 1.217-1.275 2.709-1.275 4.312 0 1.552 0.446 2.999 1.216 4.221l-0.019-0.033 0.227 0.368-0.666 0.672c-0.366 0.37-0.706 0.752-0.754 0.848-0.299 0.598-0.038 1.354 0.579 1.678 0.165 0.075 0.359 0.119 0.562 0.119s0.397-0.044 0.571-0.122l-0.009 0.004c0.269-0.144 13.792-13.675 13.926-13.934 0.139-0.269 0.13-0.814-0.018-1.093-0.322-0.608-1.029-0.875-1.616-0.61-0.157 0.069-0.474 0.341-0.912 0.776l-0.672 0.669-0.368-0.227c-0.73-0.454-1.577-0.81-2.481-1.019l-0.057-0.011c-0.487-0.105-1.047-0.165-1.62-0.165-1.613 0-3.115 0.475-4.374 1.293l0.031-0.019-0.294 0.189-1.36-1.355c-1.446-1.443-1.616-1.571-2.080-1.571-0.175 0.008-0.339 0.047-0.489 0.112l0.009-0.003zM14.69 8.235c0.486 0.126 1.363 0.486 1.363 0.56 0 0.042-7.216 7.258-7.258 7.258-0.018 0-0.12-0.187-0.227-0.416-0.411-0.875-0.597-2.062-0.462-2.95 0.334-2.312 2.096-4.131 4.349-4.549l0.033-0.005c0.586-0.112 1.541-0.067 2.202 0.102zM20.853 12.165c-0.518 0.235-0.77 0.624-0.77 1.195 0 0.416 0.074 0.603 0.354 0.882 0.224 0.228 0.536 0.37 0.881 0.37 0.005 0 0.011-0 0.016-0h-0.001c0.502-0.006 0.935-0.289 1.157-0.703l0.003-0.007c0.136-0.251 0.123-0.853-0.022-1.128-0.227-0.424-0.69-0.717-1.138-0.717-0.175 0.008-0.339 0.047-0.489 0.112l0.009-0.003zM26.187 13.498c-0.52 0.235-0.771 0.624-0.771 1.195 0 0.418 0.075 0.603 0.355 0.883 0.243 0.243 0.547 0.368 0.896 0.368 0.501-0.007 0.935-0.29 1.157-0.703l0.003-0.007c0.134-0.25 0.122-0.853-0.024-1.126-0.226-0.426-0.69-0.718-1.136-0.718-0.175 0.008-0.339 0.048-0.489 0.112l0.009-0.004zM16.853 16.165c-0.518 0.235-0.77 0.624-0.77 1.195 0 0.416 0.074 0.603 0.354 0.882 0.224 0.228 0.536 0.37 0.881 0.37 0.005 0 0.011-0 0.016-0h-0.001c0.502-0.006 0.935-0.289 1.157-0.703l0.003-0.007c0.136-0.251 0.123-0.853-0.022-1.128-0.227-0.424-0.69-0.717-1.138-0.717-0.175 0.008-0.339 0.047-0.489 0.112l0.009-0.003zM22.187 17.498c-0.52 0.235-0.771 0.624-0.771 1.195 0 0.418 0.075 0.603 0.355 0.883 0.243 0.243 0.547 0.368 0.896 0.368 0.501-0.006 0.935-0.29 1.157-0.703l0.003-0.007c0.134-0.25 0.122-0.853-0.024-1.126-0.226-0.426-0.69-0.718-1.136-0.718-0.175 0.008-0.339 0.048-0.489 0.112l0.009-0.003zM12.853 20.165c-0.518 0.235-0.77 0.624-0.77 1.195 0 0.416 0.074 0.603 0.354 0.882 0.224 0.228 0.536 0.37 0.881 0.37 0.005 0 0.011-0 0.016-0h-0.001c0.502-0.006 0.935-0.289 1.157-0.703l0.003-0.007c0.136-0.251 0.123-0.853-0.022-1.128-0.227-0.424-0.69-0.717-1.138-0.717-0.175 0.008-0.339 0.047-0.489 0.112l0.009-0.003zM18.187 21.498c-0.52 0.235-0.771 0.624-0.771 1.195 0 0.418 0.075 0.603 0.355 0.883 0.243 0.243 0.547 0.368 0.896 0.368 0.501-0.006 0.935-0.29 1.157-0.703l0.003-0.007c0.134-0.25 0.122-0.853-0.024-1.126-0.226-0.426-0.69-0.718-1.136-0.718-0.175 0.008-0.339 0.048-0.489 0.112l0.009-0.003zM14.187 25.498c-0.52 0.235-0.771 0.624-0.771 1.195 0 0.418 0.075 0.603 0.355 0.883 0.229 0.229 0.546 0.371 0.896 0.371s0.667-0.142 0.896-0.371v0c0.28-0.28 0.354-0.466 0.354-0.883 0-0.414-0.11-0.69-0.379-0.942-0.231-0.208-0.534-0.342-0.867-0.361l-0.004-0c-0.175 0.008-0.339 0.048-0.489 0.112l0.009-0.003z"></path>
</symbol>
<symbol id="icon-star" viewBox="0 0 32 32">
<path fill="#ffc531" style="fill: var(--color1, #ffc531)" d="M14.72 7.556c-0.686 1.345-1.17 2.226-1.67 3.097l0.214-0.405c-0.321 0.447-0.72 0.815-1.18 1.092l-0.018 0.010c-0.464 0.246-0.874 0.338-3.64 0.81-1.375 0.216-2.269 0.382-3.159 0.562l0.521-0.088c-0.088 0.036 0.186 0.34 1.92 2.122 1.288 1.322 2.090 2.188 2.202 2.378 0.31 0.518 0.45 1.008 0.474 1.64 0.016 0.48-0.036 0.94-0.374 3.266-0.214 1.488-0.372 2.706-0.346 2.706 0.024 0 1.19-0.562 2.59-1.248 1.466-0.72 2.692-1.288 2.892-1.342 0.458-0.12 1.25-0.12 1.708 0 0.2 0.054 1.426 0.622 2.892 1.342 1.4 0.686 2.566 1.248 2.59 1.248 0.026 0-0.132-1.218-0.346-2.706-0.338-2.326-0.39-2.786-0.374-3.266 0.024-0.632 0.164-1.122 0.474-1.64 0.112-0.19 0.91-1.052 2.2-2.378 1.728-1.778 2.010-2.088 1.92-2.122-0.379-0.094-1.273-0.259-2.172-0.41l-0.464-0.064c-2.766-0.472-3.176-0.564-3.64-0.81-0.4-0.214-0.94-0.71-1.198-1.102-0.286-0.466-0.77-1.347-1.238-2.238l-0.218-0.454c-0.63-1.239-1.056-2.019-1.493-2.791l0.213 0.409c-0.014 0-0.59 1.072-1.28 2.382z"></path>
</symbol>
<symbol id="icon-paper" viewBox="0 0 32 32">
<path d="M7.333 4.078c-1.216 0.267-2.277 1.197-3.134 2.749-0.629 1.136-1.147 2.931-1.408 4.886-0.115 0.864-0.133 3.491-0.029 4.339 0.19 1.554 0.546 3.035 1.005 4.176 0.741 1.845 1.901 3.154 3.189 3.597 0.382 0.131 0.506 0.147 1.072 0.144 0.579-0.003 0.68-0.019 1.072-0.166 0.506-0.19 0.939-0.458 1.306-0.8l0.262-0.245 0.002 2.074c0.002 1.594 0.019 2.122 0.074 2.275 0.176 0.483 0.612 0.831 1.134 0.876l0.005 0c0.288 0.027 0.442-0.016 2.214-0.603l1.904-0.632 1.885 0.626c1.037 0.344 1.962 0.626 2.056 0.626 0.093 0 1.045-0.146 2.114-0.325l1.946-0.325 1.982 0.331c1.414 0.235 2.051 0.322 2.222 0.298 0.514-0.087 0.924-0.457 1.068-0.941l0.002-0.009c0.048-0.174 0.059-1.974 0.043-7.482-0.018-6.402-0.030-7.326-0.107-7.867-0.219-1.522-0.518-2.741-0.928-3.787-0.456-1.163-0.971-1.979-1.718-2.725-0.437-0.434-0.59-0.549-1.019-0.762-0.877-0.432-0.234-0.405-9.573-0.402-6.674 0.003-8.382 0.018-8.64 0.074zM8.33 6.779c0.798 0.406 1.618 2.029 2.016 3.989 0.72 3.55 0.136 7.862-1.33 9.821-0.546 0.728-1.013 0.893-1.515 0.531-0.914-0.658-1.714-2.63-2.040-5.040-0.133-0.97-0.133-3.19 0-4.16 0.349-2.57 1.229-4.629 2.197-5.139 0.267-0.141 0.402-0.141 0.672-0.002zM24.33 6.779c0.792 0.403 1.618 2.030 2.014 3.968 0.293 1.427 0.286 1.283 0.309 8.040 0.019 6.022 0.016 6.28-0.077 6.278-0.053 0-0.589-0.083-1.189-0.186-0.361-0.071-0.826-0.137-1.297-0.182l-0.063-0.005c-0.147 0-1.085 0.134-2.085 0.299l-1.816 0.302-1.947-0.648c-1.277-0.424-2.026-0.646-2.176-0.646-0.178 0-1.875 0.514-2.6 0.786-0.050 0.018-0.069-1.395-0.085-6.234-0.018-5.528-0.030-6.333-0.11-6.893-0.264-1.842-0.658-3.27-1.23-4.459 0.131 0.314 0.053 0.152-0.026-0.010l-0.21-0.482c-0.010-0.022 2.77-0.040 6.176-0.040 6.182 0 6.194 0 6.411 0.112zM7.515 11.533c-0.28 0.216-0.538 0.67-0.698 1.238-0.176 0.622-0.176 1.838 0 2.453 0.55 1.918 1.814 1.918 2.365 0 0.176-0.614 0.176-1.83 0-2.453-0.256-0.902-0.682-1.411-1.182-1.411-0.21 0-0.301 0.032-0.485 0.173z"></path>
</symbol>
<symbol id="icon-tv" viewBox="0 0 32 32">
<path d="M9.542 1.241c-0.28 0.189-0.422 0.439-0.422 0.744 0 0.144 0.027 0.314 0.059 0.379s1.093 1.152 2.356 2.419l2.298 2.304-6.553 0.038-0.51 0.139c-0.909 0.243-1.686 0.717-2.291 1.355l-0.002 0.002c-0.568 0.581-0.991 1.306-1.208 2.115l-0.008 0.034-0.141 0.51v5.68c0 5.339 0.006 5.705 0.099 6.101 0.414 1.767 1.658 3.092 3.421 3.642l0.48 0.15h17.76l0.48-0.15c1.953-0.609 3.263-2.174 3.492-4.17 0.043-0.378 0.056-2.096 0.042-5.893-0.019-5.338-0.020-5.362-0.138-5.808-0.133-0.503-0.444-1.202-0.707-1.588-0.639-0.936-1.686-1.673-2.819-1.98l-0.51-0.139-6.553-0.038 2.298-2.304c1.263-1.267 2.324-2.355 2.356-2.419s0.059-0.235 0.059-0.379c0-0.001 0-0.002 0-0.003 0-0.476-0.386-0.862-0.862-0.862-0.001 0-0.002 0-0.003 0h0c-0.144 0-0.314 0.027-0.379 0.059-0.064 0.032-1.358 1.298-2.876 2.813l-2.76 2.754-2.76-2.754c-1.518-1.515-2.812-2.781-2.876-2.813-0.205-0.104-0.622-0.072-0.822 0.062zM24.741 8.989c1.070 0.252 2.018 1.2 2.27 2.27 0.122 0.515 0.122 11.015 0.001 11.49-0.144 0.565-0.383 0.978-0.821 1.417-0.363 0.385-0.825 0.673-1.346 0.824l-0.021 0.005c-0.302 0.094-0.722 0.098-8.824 0.098s-8.522-0.004-8.824-0.098c-1.094-0.337-1.916-1.182-2.188-2.246-0.121-0.475-0.121-10.975 0.001-11.49 0.25-1.064 1.19-2.012 2.245-2.268 0.485-0.117 17.010-0.119 17.507-0.002zM11.573 29.218c-0.232 0.136-0.4 0.361-0.458 0.627l-0.001 0.006c-0.077 0.411 0.254 0.934 0.634 1.002 0.095 0.017 2.068 0.024 4.385 0.016l4.214-0.016 0.179-0.128c0.201-0.143 0.378-0.483 0.378-0.725s-0.177-0.582-0.378-0.725l-0.179-0.128-4.294-0.014c-4.102-0.014-4.301-0.010-4.48 0.085z"></path>
</symbol>
<symbol id="icon-users" viewBox="0 0 32 32">
<path d="M20.8 5.259c-1.059 0.192-1.898 0.565-2.68 1.187-2.248 1.792-3.002 4.936-1.829 7.643 0.222 0.512 0.698 1.248 1.045 1.614l0.264 0.28-0.547 0.322c-1.58 0.93-2.856 2.222-3.742 3.766l-0.026 0.050c-0.235 0.414-0.794 1.701-0.898 2.066-0.11 0.392-0.106 1.208 0.010 1.65 0.197 0.739 0.61 1.445 1.125 1.915 0.334 0.307 1.090 0.698 1.571 0.816 0.238 0.058 1.467 0.072 6.427 0.072h6.133l0.4-0.125c1.139-0.355 1.963-1.066 2.458-2.115 0.264-0.562 0.336-0.957 0.304-1.666 0-0.003 0-0.007 0-0.010 0-0.396-0.083-0.773-0.233-1.115l0.007 0.018c-0.869-2.317-2.331-4.077-4.395-5.293-0.384-0.218-0.558-0.323-0.732-0.429l0.198 0.112c-0.011-0.008 0.077-0.122 0.195-0.251 0.768-0.834 1.285-1.882 1.514-3.074 0.098-0.515 0.083-2.013-0.027-2.514-0.517-2.362-2.112-4.141-4.274-4.771-0.408-0.118-0.605-0.142-1.307-0.157-0.118-0.005-0.256-0.008-0.394-0.008-0.199 0-0.397 0.006-0.593 0.017l0.027-0.001zM22.386 8.16c1.781 0.621 2.731 2.816 2.051 4.738-0.467 1.32-1.531 2.194-2.784 2.286-0.52 0.038-0.914-0.046-1.446-0.314-0.567-0.315-1.030-0.752-1.367-1.278l-0.009-0.015c-1.259-2.118-0.274-4.867 1.97-5.496 0.402-0.112 1.146-0.075 1.586 0.078zM8.027 9.045c-1.821 0.4-3.333 1.907-3.85 3.837-0.126 0.472-0.142 0.629-0.142 1.386 0 0.702 0.019 0.925 0.114 1.264 0.226 0.824 0.589 1.582 1.005 2.102l0.176 0.219-0.552 0.355c-1.317 0.854-2.359 2.030-3.028 3.42l-0.022 0.050c-0.478 1.008-0.514 1.957-0.112 2.946 0.301 0.739 1.010 1.512 1.702 1.854 0.667 0.328 0.973 0.357 3.709 0.338 2.618-0.018 2.611-0.016 2.965-0.352 0.282-0.267 0.379-0.526 0.379-0.997 0-0.49-0.11-0.763-0.41-1.016-0.349-0.293-0.326-0.291-2.922-0.291-2.658 0-2.618 0.005-2.922-0.341-0.214-0.245-0.218-0.387-0.016-0.875 0.509-1.265 1.458-2.264 2.654-2.825l0.032-0.014c0.632-0.301 1.165-0.422 2.091-0.482 1.24-0.077 1.92-0.264 2.752-0.755 0.456-0.269 1.272-1.048 1.579-1.509 1.454-2.174 1.142-5.027-0.758-6.933-0.576-0.591-1.293-1.042-2.097-1.299l-0.036-0.010c-0.496-0.158-1.731-0.198-2.293-0.074zM9.624 11.814c0.917 0.238 1.643 1.077 1.798 2.070 0.187 1.208-0.466 2.382-1.536 2.763-2.061 0.734-3.923-1.522-2.946-3.568 0.389-0.795 1.193-1.333 2.122-1.333 0.199 0 0.393 0.025 0.577 0.071l-0.016-0.003zM22.722 17.842c1.346 0.219 2.664 0.923 3.733 1.995 0.632 0.637 1.046 1.221 1.437 2.034 0.301 0.626 0.336 0.898 0.181 1.357-0.12 0.35-0.554 0.795-0.856 0.875-0.158 0.043-1.845 0.056-5.84 0.045-5.549-0.014-5.618-0.014-5.802-0.123-0.358-0.21-0.693-0.896-0.619-1.27 0.090-0.45 0.632-1.509 1.088-2.126 0.789-1.042 1.823-1.858 3.019-2.37l0.048-0.018c0.73-0.316 1.58-0.499 2.473-0.499 0.402 0 0.796 0.037 1.178 0.109l-0.039-0.006z"></path>
</symbol>
<symbol id="icon-Vertical-container" viewBox="0 0 32 32">
<path d="M14.408 3.282c-2.717 0.477-4.776 2.51-5.317 5.25-0.050 0.248-0.078 0.576-0.066 0.73 0.056 0.675 0.781 1.066 1.414 0.76 0.336-0.163 0.475-0.411 0.634-1.122 0.229-1.034 0.584-1.718 1.227-2.371 0.859-0.874 2.003-1.333 3.272-1.318 0.013-0 0.028-0 0.043-0 0.696 0 1.352 0.173 1.926 0.478l-0.022-0.011c1.715 0.835 2.726 2.768 2.406 4.602-0.306 1.754-1.445 3.018-3.218 3.574l-0.469 0.147-15.581 0.053-0.216 0.144c-0.263 0.179-0.433 0.477-0.433 0.815 0 0.381 0.217 0.711 0.533 0.874l0.005 0.003 0.237 0.115 15.562-0.030 0.626-0.17c2.683-0.726 4.573-2.922 4.845-5.63 0.017-0.172 0.027-0.372 0.027-0.574 0-1.001-0.237-1.946-0.657-2.783l0.016 0.036c-0.884-1.789-2.516-3.093-4.476-3.515l-0.043-0.008c-0.552-0.12-1.722-0.144-2.277-0.046zM26.373 12.091c-2.078 0.282-3.77 1.787-4.243 3.776-0.142 0.602-0.16 1.323-0.037 1.554 0.178 0.324 0.518 0.54 0.907 0.54 0.214 0 0.412-0.065 0.576-0.176l-0.004 0.002c0.274-0.19 0.408-0.488 0.45-0.998 0.061-0.722 0.293-1.25 0.781-1.77 0.552-0.592 1.179-0.899 1.97-0.968 1.394-0.12 2.768 0.848 3.117 2.197 0.394 1.526-0.478 3.046-2.050 3.573-0.282 0.094-0.85 0.101-13.733 0.126-12.611 0.024-13.451 0.032-13.61 0.118-0.643 0.352-0.656 1.269-0.024 1.698l0.194 0.13 10.186 0.027c7.27 0.019 10.234 0.045 10.347 0.086 0.685 0.253 1.237 0.714 1.51 1.258 0.75 1.496-0.178 3.264-1.853 3.523-1.314 0.203-2.542-0.661-2.846-2.003-0.098-0.432-0.288-0.704-0.592-0.842-0.653-0.298-1.419 0.166-1.419 0.859 0 0.546 0.328 1.442 0.758 2.070 0.576 0.842 1.568 1.522 2.629 1.802 0.568 0.15 1.723 0.138 2.293-0.026 2.749-0.784 4.101-3.738 2.851-6.23l-0.245-0.49 1.736-0.021c1.669-0.021 1.758-0.027 2.254-0.16 1.709-0.456 3.038-1.749 3.536-3.403l0.009-0.035c0.13-0.426 0.144-0.547 0.144-1.322 0-0.778-0.014-0.896-0.147-1.334-0.549-1.823-2.063-3.189-3.933-3.516l-0.030-0.004c-0.273-0.044-0.587-0.069-0.908-0.069-0.203 0-0.403 0.010-0.601 0.030l0.025-0.002z"></path>
</symbol>
<symbol id="icon-water" viewBox="0 0 32 32">
<path d="M15.592 2.346c-0.347 0.091-0.649 0.251-0.902 0.467l0.003-0.003c-0.088 0.083-0.486 0.546-0.885 1.030-2.493 3.027-4.523 6.075-5.933 8.907-1.043 2.096-1.59 3.658-1.936 5.52-0.078 0.429-0.098 0.792-0.096 1.866 0.002 1.469 0.072 2.034 0.394 3.182 0.986 3.509 3.587 5.896 7.222 6.63 0.93 0.187 1.483 0.24 2.541 0.24 0.514 0 1.149-0.024 1.413-0.054 4.965-0.565 8.182-3.81 8.726-8.8 0.078-0.723 0.034-2.432-0.082-3.064-0.33-1.819-0.896-3.435-1.933-5.52-1.413-2.84-3.442-5.883-5.939-8.914-0.319-0.398-0.627-0.75-0.949-1.089l0.007 0.007c-0.405-0.341-1.125-0.517-1.651-0.406zM16.419 5.45c3.179 3.902 5.666 7.997 6.712 11.058 0.413 1.205 0.595 2.133 0.64 3.234 0.078 1.973-0.408 3.819-1.355 5.152-0.594 0.792-1.327 1.444-2.169 1.93l-0.035 0.018c-1.739 0.96-4.522 1.229-6.746 0.651-1.867-0.486-3.349-1.594-4.245-3.174-0.83-1.464-1.181-3.531-0.928-5.461 0.344-2.624 1.99-6.096 4.797-10.11 0.902-1.293 2.818-3.781 2.909-3.779 0.014 0 0.203 0.218 0.419 0.482zM20.962 19.451c-0.437 0.229-0.59 0.478-0.654 1.064-0.086 0.779-0.146 1.016-0.373 1.469-0.158 0.315-0.357 0.585-0.594 0.815l-0.001 0.001c-0.626 0.632-1.214 0.901-2.16 0.99-0.674 0.064-0.944 0.195-1.181 0.568-0.124 0.18-0.198 0.402-0.198 0.642 0 0.295 0.112 0.564 0.297 0.766l-0.001-0.001c0.267 0.31 0.533 0.419 1.030 0.421 2.922 0.008 5.506-2.547 5.555-5.493 0.008-0.424-0.010-0.541-0.104-0.72-0.189-0.374-0.562-0.631-0.997-0.651l-0.003-0c-0.043-0.008-0.093-0.012-0.143-0.012-0.176 0-0.34 0.053-0.476 0.144l0.003-0.002z"></path>
</symbol>
<symbol id="icon-wind" viewBox="0 0 32 32">
<path d="M14.408 3.282c-2.717 0.477-4.776 2.51-5.317 5.25-0.050 0.248-0.078 0.576-0.066 0.73 0.056 0.675 0.781 1.066 1.414 0.76 0.336-0.163 0.475-0.411 0.634-1.122 0.229-1.034 0.584-1.718 1.227-2.371 0.859-0.874 2.003-1.333 3.272-1.318 0.013-0 0.028-0 0.043-0 0.696 0 1.352 0.173 1.926 0.478l-0.022-0.011c1.715 0.835 2.726 2.768 2.406 4.602-0.306 1.754-1.445 3.018-3.218 3.574l-0.469 0.147-15.581 0.053-0.216 0.144c-0.263 0.179-0.433 0.477-0.433 0.815 0 0.381 0.217 0.711 0.533 0.874l0.005 0.003 0.237 0.115 15.562-0.030 0.626-0.17c2.683-0.726 4.573-2.922 4.845-5.63 0.017-0.172 0.027-0.372 0.027-0.574 0-1.001-0.237-1.946-0.657-2.783l0.016 0.036c-0.884-1.789-2.516-3.093-4.476-3.515l-0.043-0.008c-0.552-0.12-1.722-0.144-2.277-0.046zM26.373 12.091c-2.078 0.282-3.77 1.787-4.243 3.776-0.142 0.602-0.16 1.323-0.037 1.554 0.178 0.324 0.518 0.54 0.907 0.54 0.214 0 0.412-0.065 0.576-0.176l-0.004 0.002c0.274-0.19 0.408-0.488 0.45-0.998 0.061-0.722 0.293-1.25 0.781-1.77 0.552-0.592 1.179-0.899 1.97-0.968 1.394-0.12 2.768 0.848 3.117 2.197 0.394 1.526-0.478 3.046-2.050 3.573-0.282 0.094-0.85 0.101-13.733 0.126-12.611 0.024-13.451 0.032-13.61 0.118-0.643 0.352-0.656 1.269-0.024 1.698l0.194 0.13 10.186 0.027c7.27 0.019 10.234 0.045 10.347 0.086 0.685 0.253 1.237 0.714 1.51 1.258 0.75 1.496-0.178 3.264-1.853 3.523-1.314 0.203-2.542-0.661-2.846-2.003-0.098-0.432-0.288-0.704-0.592-0.842-0.653-0.298-1.419 0.166-1.419 0.859 0 0.546 0.328 1.442 0.758 2.070 0.576 0.842 1.568 1.522 2.629 1.802 0.568 0.15 1.723 0.138 2.293-0.026 2.749-0.784 4.101-3.738 2.851-6.23l-0.245-0.49 1.736-0.021c1.669-0.021 1.758-0.027 2.254-0.16 1.709-0.456 3.038-1.749 3.536-3.403l0.009-0.035c0.13-0.426 0.144-0.547 0.144-1.322 0-0.778-0.014-0.896-0.147-1.334-0.549-1.823-2.063-3.189-3.933-3.516l-0.030-0.004c-0.273-0.044-0.587-0.069-0.908-0.069-0.203 0-0.403 0.010-0.601 0.030l0.025-0.002z"></path>
</symbol>
<symbol id="icon-hurt2" viewBox="0 0 32 32">
<path  d="M8.080 2.587c-3.539 0.563-6.399 3.156-7.245 6.565-0.166 0.614-0.261 1.319-0.261 2.047 0 0.047 0 0.095 0.001 0.142l-0-0.007c0 1.955 0.555 3.659 1.709 5.253 0.373 0.515 12.744 12.917 13.049 13.083 0.307 0.167 1.028 0.167 1.333 0 0.304-0.164 12.615-12.507 13.023-13.056 1.171-1.573 1.732-3.287 1.732-5.28 0-1.437-0.292-2.719-0.901-3.947-0.873-1.761-2.5-3.323-4.28-4.108-1.033-0.487-2.244-0.772-3.522-0.772-0.041 0-0.083 0-0.124 0.001l0.006-0c-0.027-0-0.059-0-0.091-0-1.668 0-3.225 0.472-4.546 1.29l0.037-0.021c-0.463 0.276-0.889 0.605-1.479 1.144l-0.519 0.473-0.585-0.531c-1.395-1.267-2.871-1.979-4.711-2.273-0.624-0.1-2.008-0.101-2.627-0.003z"></path>
</symbol>
<symbol id="icon-close" viewBox="0 0 32 32">
<path stroke-linejoin="round" stroke-linecap="round" stroke-miterlimit="4" stroke-width="2.4" d="M24 8l-16 16"></path>
<path stroke-linejoin="round" stroke-linecap="round" stroke-miterlimit="4" stroke-width="2.4" d="M8 8l16 16"></path>
</symbol>
<symbol id="icon-campervan" viewBox="0 0 32 32">
<path fill="#20241e" style="fill: var(--color1, #20241e)" d="M19.231 11.521l0.112 5.778 6.589-0.239 1.338-0.316-2.673-2.954-1.394-1.791-0.952-0.478z"></path>
<path fill="#20241e" style="fill: var(--color1, #20241e)" d="M1.778 10.042l0.407 4.893h8.897l-0.502-4.893z"></path>
<path fill="#db3328" style="fill: var(--color2, #db3328)" d="M30.867 17.792l-3.409-1.571-3.393-4.082c-0.091-0.11-0.188-0.213-0.289-0.31h0.495c0.909 0 1.649-0.74 1.649-1.649v-2.371c0-0.909-0.74-1.649-1.649-1.649h-22.445c-0.91 0-1.649 0.74-1.649 1.649v13.956c0 1.074 0.874 1.948 1.95 1.948l1.557-0.005 26.631-0.001c-0 0.001-0 0.003-0.001 0.005l0.225 0.001c0.689 0 1.25-0.561 1.25-1.25v-3.232c0-0.616-0.361-1.181-0.921-1.439zM20.051 11.829h1.105c0.813 0 1.578 0.359 2.098 0.984l2.751 3.31h-5.751c-0.112 0-0.203-0.091-0.203-0.203v-4.091zM2.846 11.916c0-0.595 0.484-1.079 1.079-1.079h5.018c0.595 0 1.079 0.484 1.079 1.079v1.508c0 0.595-0.484 1.079-1.079 1.079h-5.018c-0.595 0-1.079-0.484-1.079-1.079v-1.508z"></path>
<path fill="#bf2525" style="fill: var(--color3, #bf2525)" d="M31.323 21.606l-0.241-0.001c0-0.001 0-0.003 0.001-0.005l-0.001 0.001-30.221 0.005c-0.24 0-0.47-0.040-0.686-0.11v0.269c0 1.074 0.874 1.948 1.95 1.948l1.557-0.005 26.631-0.001c-0 0.001-0 0.003-0.001 0.005l0.225 0.001c0.689 0 1.25-0.561 1.25-1.25v-0.939c-0.145 0.051-0.301 0.082-0.465 0.082z"></path>
<path fill="#20241e" style="fill: var(--color1, #20241e)" d="M27.006 25.805c-1.646 0-2.984-1.339-2.984-2.985s1.339-2.984 2.984-2.984 2.984 1.339 2.984 2.984c0 1.646-1.339 2.985-2.984 2.985z"></path>
<path fill="#20241e" style="fill: var(--color1, #20241e)" d="M6.154 25.805c-1.646 0-2.984-1.339-2.984-2.985s1.339-2.984 2.984-2.984c1.646 0 2.985 1.339 2.985 2.984s-1.339 2.985-2.985 2.985z"></path>
<path fill="#50534e" style="fill: var(--color4, #50534e)" d="M6.154 24.401c-0.871 0-1.581-0.709-1.581-1.581s0.709-1.581 1.581-1.581 1.581 0.709 1.581 1.581c0 0.872-0.709 1.581-1.581 1.581z"></path>
<path fill="#50534e" style="fill: var(--color4, #50534e)" d="M27.006 24.401c-0.871 0-1.581-0.709-1.581-1.581s0.709-1.581 1.581-1.581 1.581 0.709 1.581 1.581c0 0.872-0.709 1.581-1.581 1.581z"></path>
<path fill="#ced6ce" style="fill: var(--color5, #ced6ce)" d="M31.788 19.521h-1.798c0 0.83 0.652 1.161 1.798 1.367v-1.367z"></path>
<path fill="#bf2525" style="fill: var(--color3, #bf2525)" d="M0.851 20.926c0.31 0 0.562-0.252 0.562-0.562v-0.631c0-0.306-0.244-0.553-0.549-0.561h-0.685c0 0.012-0.003 0.022-0.003 0.034v1.719h0.675z"></path>
</symbol>
</defs>
</svg>
